<?xml version="1.0" encoding="UTF-8" standalone="no"?>
<svg
   height="50"
   width="50"
   version="1.1"
   id="svg1"
   sodipodi:docname="compass.svg"
   inkscape:version="1.3 (0e150ed6c4, 2023-07-21)"
   xmlns:inkscape="http://www.inkscape.org/namespaces/inkscape"
   xmlns:sodipodi="http://sodipodi.sourceforge.net/DTD/sodipodi-0.dtd"
   xmlns="http://www.w3.org/2000/svg"
   xmlns:svg="http://www.w3.org/2000/svg">
  <defs
     id="defs1" />
  <sodipodi:namedview
     id="namedview1"
     pagecolor="#ffffff"
     bordercolor="#000000"
     borderopacity="0.25"
     inkscape:showpageshadow="2"
     inkscape:pageopacity="0.0"
     inkscape:pagecheckerboard="0"
     inkscape:deskcolor="#d1d1d1"
     inkscape:zoom="33.92"
     inkscape:cx="21.079009"
     inkscape:cy="19.28066"
     inkscape:window-width="1920"
     inkscape:window-height="1027"
     inkscape:window-x="-8"
     inkscape:window-y="-8"
     inkscape:window-maximized="1"
     inkscape:current-layer="svg1"
     showguides="true">
    <sodipodi:guide
       position="-15,26"
       orientation="1,0"
       id="guide6"
       inkscape:locked="false" />
    <sodipodi:guide
       position="-35,25"
       orientation="0,-1"
       id="guide7"
       inkscape:locked="false" />
  </sodipodi:namedview>
  <g
     id="g13"
     transform="matrix(1,0,0,-1,40,50)">
    <path
       d="m -18.75,25 3.2578,-19 h 0.9844 l 3.2578,19 z"
       id="path10"
       style="fill:#d40000;stroke-width:1.0274" />
    <path
       d="M -15.4922,44 -18.75,25 h 7.5 l -3.25781,19 h -0.984376 z"
       id="path11"
       style="fill:#3771c8;stroke-width:1.0274" />
    <path
       style="opacity:1;fill:#aa0000;stroke-width:15;paint-order:fill markers stroke"
       d="M -15,25 V 6 h -0.4922 L -18.75,25 Z"
       id="path12" />
    <path
       style="opacity:1;fill:#2c5aa0;stroke-width:15;paint-order:fill markers stroke"
       d="m -15,25 v 19 h -0.4922 L -18.75,25 Z"
       id="path13" />
    <circle
       style="opacity:1;fill:#f9f9f9;stroke-width:9.56522;paint-order:fill markers stroke"
       id="circle13"
       cx="-15"
       cy="-25"
       r="1.2971697"
       transform="scale(1,-1)" />
  </g>
  <g
     id="g6"
     transform="matrix(1,0,0,-1,0,50)">
    <path
       d="m -18.75,25 3.2578,-19 h 0.9844 l 3.2578,19 z"
       id="path5"
       style="fill:#d40000;stroke-width:1.0274" />
    <path
       d="M -15.4922,44 -18.75,25 h 7.5 l -3.25781,19 h -0.984376 z"
       id="path3"
       style="fill:#3771c8;stroke-width:1.0274" />
    <path
       style="opacity:1;fill:#aa0000;stroke-width:15;paint-order:fill markers stroke"
       d="M -15,25 V 6 h -0.4922 L -18.75,25 Z"
       id="path7" />
    <path
       style="opacity:1;fill:#2c5aa0;stroke-width:15;paint-order:fill markers stroke"
       d="m -15,25 v 19 h -0.4922 L -18.75,25 Z"
       id="path8" />
    <circle
       style="opacity:1;fill:#f9f9f9;stroke-width:9.56522;paint-order:fill markers stroke"
       id="path9"
       cx="-15"
       cy="-25"
       r="1.2971697"
       transform="scale(1,-1)" />
  </g>
  <path
     d="M -35.4922,6 -38.75,24 h 7.5 L -34.50781,6 h -0.984376 z m -3.2578,20 3.2578,18 h 0.9844 L -31.25,26 Z m 1.19531,0.9941 h 5.10938 l -2.5547,14.1075 -2.5547,-14.1075 z"
     id="path4" />
</svg>
